<?xml version="1.0" standalone="no"?><!DOCTYPE svg PUBLIC "-//W3C//DTD SVG 1.1//EN" "http://www.w3.org/Graphics/SVG/1.1/DTD/svg11.dtd"><svg t="1517834083855" class="icon" style="" viewBox="0 0 1024 1024" version="1.1" xmlns="http://www.w3.org/2000/svg" p-id="1880" xmlns:xlink="http://www.w3.org/1999/xlink" width="200" height="200"><defs><style type="text/css"></style></defs><path d="M1010.432 838.752l-383.968-768c-21.664-43.36-65.952-70.752-114.464-70.752s-92.8 27.392-114.464 70.752l-383.968 768c-19.84 39.68-17.728 86.816 5.6 124.576 23.328 37.696 64.512 60.672 108.864 60.672l767.904 0c44.384 0 85.568-22.976 108.864-60.672 23.328-37.76 25.44-84.896 5.632-124.576zM575.936 864c0 17.696-14.304 32-32 32l-64 0c-17.696 0-32-14.304-32-32l0-64c0-17.696 14.304-32 32-32l64 0c17.696 0 32 14.304 32 32l0 64zM575.936 608c0 17.696-14.304 32-32 32l-64 0c-17.696 0-32-14.304-32-32l0-320c0-17.664 14.304-32 32-32l64 0c17.696 0 32 14.336 32 32l0 320z" p-id="1881"></path></svg>