<?xml version="1.0" encoding="UTF-8"?>
<svg width="231px" height="117px" viewBox="0 0 231 117" version="1.1" xmlns="http://www.w3.org/2000/svg" xmlns:xlink="http://www.w3.org/1999/xlink">
    <!-- Generator: Sketch 39.1 (31720) - http://www.bohemiancoding.com/sketch -->
    <title>Group</title>
    <desc>Created with Sketch.</desc>
    <defs>
        <path d="M20.104,69 L1.78,69 C1.32399772,69 0.99400102,68.898001 0.79,68.694 C0.58599898,68.489999 0.484,68.1600023 0.484,67.704 L0.484,44.376 C0.484,43.9199977 0.58599898,43.590001 0.79,43.386 C0.99400102,43.181999 1.32399772,43.08 1.78,43.08 L7.36,43.08 C7.81600228,43.08 8.14599898,43.181999 8.35,43.386 C8.55400102,43.590001 8.656,43.9199977 8.656,44.376 L8.656,62.196 L13.588,62.196 L13.588,56.364 C13.588,55.9079977 13.689999,55.578001 13.894,55.374 C14.098001,55.169999 14.4279977,55.068 14.884,55.068 L20.104,55.068 C20.5600023,55.068 20.889999,55.169999 21.094,55.374 C21.298001,55.578001 21.4,55.9079977 21.4,56.364 L21.4,67.704 C21.4,68.1600023 21.298001,68.489999 21.094,68.694 C20.889999,68.898001 20.5600023,69 20.104,69 L20.104,69 Z M47.572,62.196 C47.572,63.3000055 47.4100016,64.3019955 47.086,65.202 C46.7619984,66.1020045 46.1860041,66.8699968 45.358,67.506 C44.5299959,68.1420032 43.3960072,68.6399982 41.956,69 C40.5159928,69.3600018 38.6800112,69.54 36.448,69.54 C34.2159888,69.54 32.3800072,69.3600018 30.94,69 C29.4999928,68.6399982 28.3660041,68.1420032 27.538,67.506 C26.7099959,66.8699968 26.1340016,66.1020045 25.81,65.202 C25.4859984,64.3019955 25.324,63.3000055 25.324,62.196 L25.324,44.376 C25.324,43.9199977 25.425999,43.590001 25.63,43.386 C25.834001,43.181999 26.1639977,43.08 26.62,43.08 L32.272,43.08 C32.7280023,43.08 33.057999,43.181999 33.262,43.386 C33.466001,43.590001 33.568,43.9199977 33.568,44.376 L33.568,60.792 C33.568,61.2720024 33.7479982,61.6739984 34.108,61.998 C34.4680018,62.3220016 35.2719938,62.484 36.52,62.484 C37.7920064,62.484 38.6079982,62.3220016 38.968,61.998 C39.3280018,61.6739984 39.508,61.2720024 39.508,60.792 L39.508,44.376 C39.508,43.9199977 39.609999,43.590001 39.814,43.386 C40.018001,43.181999 40.3479977,43.08 40.804,43.08 L46.276,43.08 C46.7320023,43.08 47.061999,43.181999 47.266,43.386 C47.470001,43.590001 47.572,43.9199977 47.572,44.376 L47.572,62.196 Z M69.604,69 L60.82,69 C57.819985,69 55.5940073,68.400006 54.142,67.2 C52.6899927,65.999994 51.964,64.1520125 51.964,61.656 L51.964,50.46 C51.964,47.9639875 52.6899927,46.1100061 54.142,44.898 C55.5940073,43.6859939 57.819985,43.08 60.82,43.08 L69.604,43.08 C70.0600023,43.08 70.389999,43.181999 70.594,43.386 C70.798001,43.590001 70.9,43.9199977 70.9,44.376 L70.9,48.732 C70.9,49.1880023 70.798001,49.517999 70.594,49.722 C70.389999,49.926001 70.0600023,50.028 69.604,50.028 L62.368,50.028 C61.6239963,50.028 61.0720018,50.1779985 60.712,50.478 C60.3519982,50.7780015 60.172,51.227997 60.172,51.828 L60.172,60.396 C60.172,60.996003 60.3519982,61.4339986 60.712,61.71 C61.0720018,61.9860014 61.6239963,62.124 62.368,62.124 L69.604,62.124 C70.0600023,62.124 70.389999,62.225999 70.594,62.43 C70.798001,62.634001 70.9,62.9639977 70.9,63.42 L70.9,67.704 C70.9,68.1600023 70.798001,68.489999 70.594,68.694 C70.389999,68.898001 70.0600023,69 69.604,69 L69.604,69 Z M81.844,69 L76.264,69 C75.8079977,69 75.478001,68.898001 75.274,68.694 C75.069999,68.489999 74.968,68.1600023 74.968,67.704 L74.968,44.376 C74.968,43.9199977 75.069999,43.590001 75.274,43.386 C75.478001,43.181999 75.8079977,43.08 76.264,43.08 L81.844,43.08 C82.3000023,43.08 82.629999,43.181999 82.834,43.386 C83.038001,43.590001 83.14,43.9199977 83.14,44.376 L83.14,52.656 L84.58,52.656 L88.288,44.268 C88.4560008,43.8359978 88.6839986,43.5300009 88.972,43.35 C89.2600014,43.1699991 89.6319977,43.08 90.088,43.08 L95.632,43.08 C96.040002,43.08 96.3159993,43.181999 96.46,43.386 C96.6040007,43.590001 96.5920008,43.8839981 96.424,44.268 L92.752,52.656 C94.0960067,52.7280004 95.169996,53.2019956 95.974,54.078 C96.778004,54.9540044 97.18,56.1119928 97.18,57.552 L97.18,67.704 C97.18,68.1600023 97.078001,68.489999 96.874,68.694 C96.669999,68.898001 96.3400023,69 95.884,69 L90.34,69 C89.8839977,69 89.554001,68.898001 89.35,68.694 C89.145999,68.489999 89.044,68.1600023 89.044,67.704 L89.044,60.684 C89.044,60.2999981 88.948001,60.0000011 88.756,59.784 C88.563999,59.5679989 88.2760019,59.46 87.892,59.46 L83.14,59.46 L83.14,67.704 C83.14,68.1600023 83.038001,68.489999 82.834,68.694 C82.629999,68.898001 82.3000023,69 81.844,69 L81.844,69 Z M114.244,69 L108.412,69 C107.955998,69 107.626001,68.898001 107.422,68.694 C107.217999,68.489999 107.116,68.1600023 107.116,67.704 L107.116,63.096 L101.608,55.716 C101.055997,54.9719963 100.690001,54.3240028 100.51,53.772 C100.329999,53.2199972 100.24,52.3920055 100.24,51.288 L100.24,44.376 C100.24,43.9199977 100.341999,43.590001 100.546,43.386 C100.750001,43.181999 101.079998,43.08 101.536,43.08 L107.08,43.08 C107.536002,43.08 107.865999,43.181999 108.07,43.386 C108.274001,43.590001 108.376,43.9199977 108.376,44.376 L108.376,50.28 C108.376,50.5200012 108.388,50.7719987 108.412,51.036 C108.436,51.3000013 108.531999,51.5519988 108.7,51.792 L110.356,54.384 C110.476001,54.6000011 110.601999,54.7559995 110.734,54.852 C110.866001,54.9480005 111.027999,54.996 111.22,54.996 L111.58,54.996 C111.772001,54.996 111.933999,54.9480005 112.066,54.852 C112.198001,54.7559995 112.323999,54.6000011 112.444,54.384 L114.1,51.792 C114.268001,51.5519988 114.364,51.3000013 114.388,51.036 C114.412,50.7719987 114.424,50.5200012 114.424,50.28 L114.424,44.376 C114.424,43.9199977 114.525999,43.590001 114.73,43.386 C114.934001,43.181999 115.263998,43.08 115.72,43.08 L121.084,43.08 C121.540002,43.08 121.869999,43.181999 122.074,43.386 C122.278001,43.590001 122.38,43.9199977 122.38,44.376 L122.38,51.288 C122.38,52.3920055 122.284001,53.2199972 122.092,53.772 C121.899999,54.3240028 121.540003,54.9719963 121.012,55.716 L115.54,63.132 L115.54,67.704 C115.54,68.1600023 115.438001,68.489999 115.234,68.694 C115.029999,68.898001 114.700002,69 114.244,69 L114.244,69 Z M133.144,69 L127.78,69 C127.323998,69 126.994001,68.898001 126.79,68.694 C126.585999,68.489999 126.484,68.1600023 126.484,67.704 L126.484,44.376 C126.484,43.9199977 126.585999,43.590001 126.79,43.386 C126.994001,43.181999 127.323998,43.08 127.78,43.08 L133.576,43.08 C133.960002,43.08 134.277999,43.1639992 134.53,43.332 C134.782001,43.5000008 135.015999,43.7759981 135.232,44.16 L138.472,50.028 C138.592001,50.2440011 138.694,50.3999995 138.778,50.496 C138.862,50.5920005 138.975999,50.64 139.12,50.64 L139.444,50.64 C139.588001,50.64 139.702,50.5920005 139.786,50.496 C139.87,50.3999995 139.971999,50.2440011 140.092,50.028 L143.296,44.16 C143.512001,43.7759981 143.745999,43.5000008 143.998,43.332 C144.250001,43.1639992 144.567998,43.08 144.952,43.08 L150.784,43.08 C151.240002,43.08 151.569999,43.181999 151.774,43.386 C151.978001,43.590001 152.08,43.9199977 152.08,44.376 L152.08,67.704 C152.08,68.1600023 151.978001,68.489999 151.774,68.694 C151.569999,68.898001 151.240002,69 150.784,69 L145.24,69 C144.783998,69 144.454001,68.898001 144.25,68.694 C144.045999,68.489999 143.944,68.1600023 143.944,67.704 L143.944,55.032 L141.82,58.956 C141.603999,59.364002 141.346001,59.6579991 141.046,59.838 C140.745998,60.0180009 140.368002,60.108 139.912,60.108 L138.472,60.108 C138.015998,60.108 137.638001,60.0180009 137.338,59.838 C137.037998,59.6579991 136.780001,59.364002 136.564,58.956 L134.44,55.032 L134.44,67.704 C134.44,68.1600023 134.338001,68.489999 134.134,68.694 C133.929999,68.898001 133.600002,69 133.144,69 L133.144,69 Z M179.008,62.196 C179.008,63.3000055 178.846002,64.3019955 178.522,65.202 C178.197998,66.1020045 177.622004,66.8699968 176.794,67.506 C175.965996,68.1420032 174.826007,68.6399982 173.374,69 C171.921993,69.3600018 170.080011,69.54 167.848,69.54 C165.615989,69.54 163.768007,69.3600018 162.304,69 C160.839993,68.6399982 159.694004,68.1420032 158.866,67.506 C158.037996,66.8699968 157.462002,66.1020045 157.138,65.202 C156.813998,64.3019955 156.652,63.3000055 156.652,62.196 L156.652,49.92 C156.652,48.8159945 156.813998,47.8140045 157.138,46.914 C157.462002,46.0139955 158.037996,45.2400032 158.866,44.592 C159.694004,43.9439968 160.839993,43.4400018 162.304,43.08 C163.768007,42.7199982 165.615989,42.54 167.848,42.54 C170.080011,42.54 171.921993,42.7199982 173.374,43.08 C174.826007,43.4400018 175.965996,43.9439968 176.794,44.592 C177.622004,45.2400032 178.197998,46.0139955 178.522,46.914 C178.846002,47.8140045 179.008,48.8159945 179.008,49.92 L179.008,62.196 Z M164.824,60.9 C164.824,61.3800024 165.003998,61.7819984 165.364,62.106 C165.724002,62.4300016 166.551994,62.592 167.848,62.592 C169.144006,62.592 169.971998,62.4300016 170.332,62.106 C170.692002,61.7819984 170.872,61.3800024 170.872,60.9 L170.872,51.216 C170.872,50.7599977 170.692002,50.3700016 170.332,50.046 C169.971998,49.7219984 169.144006,49.56 167.848,49.56 C166.551994,49.56 165.724002,49.7219984 165.364,50.046 C165.003998,50.3700016 164.824,50.7599977 164.824,51.216 L164.824,60.9 Z M190.276,69 L184.876,69 C184.419998,69 184.090001,68.898001 183.886,68.694 C183.681999,68.489999 183.58,68.1600023 183.58,67.704 L183.58,44.376 C183.58,43.9199977 183.681999,43.590001 183.886,43.386 C184.090001,43.181999 184.419998,43.08 184.876,43.08 L188.62,43.08 C189.076002,43.08 189.465998,43.1519993 189.79,43.296 C190.114002,43.4400007 190.431998,43.6919982 190.744,44.052 L197.728,52.044 L197.728,44.376 C197.728,43.9199977 197.829999,43.590001 198.034,43.386 C198.238001,43.181999 198.567998,43.08 199.024,43.08 L204.424,43.08 C204.880002,43.08 205.209999,43.181999 205.414,43.386 C205.618001,43.590001 205.72,43.9199977 205.72,44.376 L205.72,67.704 C205.72,68.1600023 205.618001,68.489999 205.414,68.694 C205.209999,68.898001 204.880002,69 204.424,69 L199.024,69 C198.567998,69 198.238001,68.898001 198.034,68.694 C197.829999,68.489999 197.728,68.1600023 197.728,67.704 L197.728,63.276 L191.572,55.824 L191.572,67.704 C191.572,68.1600023 191.470001,68.489999 191.266,68.694 C191.061999,68.898001 190.732002,69 190.276,69 L190.276,69 Z" id="path-1"></path>
    </defs>
    <g id="Icon" stroke="none" stroke-width="1" fill="none" fill-rule="evenodd">
        <g id="4" transform="translate(-113.000000, -181.000000)">
            <g id="Group" transform="translate(113.000000, 181.000000)">
                <path d="M228.062643,54.512438 C231.955268,56.6412169 231.953758,60.0934747 228.062643,62.2214284 L130.668495,115.483853 C126.775871,117.612632 123.620276,115.738416 123.620276,111.301981 L123.620276,5.43188577 C123.620276,0.993522502 126.77738,-0.877940258 130.668495,1.25001337 L228.062643,54.512438" id="Triangle" fill="#9AF153"></path>
                <mask id="mask-2" fill="white">
                    <use xlink:href="#path-1"></use>
                </mask>
                <use id="Mask" fill="#9AF153" xlink:href="#path-1"></use>
                <path d="M228.062643,54.512438 C231.955268,56.6412169 231.953758,60.0934747 228.062643,62.2214284 L130.668495,115.483853 C126.775871,117.612632 123.620276,115.738416 123.620276,111.301981 L123.620276,5.43188577 C123.620276,0.993522502 126.77738,-0.877940258 130.668495,1.25001337 L228.062643,54.512438" id="Triangle-Copy" fill="#FFFFFF" mask="url(#mask-2)"></path>
            </g>
        </g>
    </g>
</svg>